<svg xmlns="http://www.w3.org/2000/svg" viewBox="0 0 219.89 168.59"><defs><style>.cls-1{fill:#682fb3;}.cls-2,.cls-4{opacity:0.1;}.cls-3{fill:#33175a;}.cls-4,.cls-6{fill:#fff;}.cls-5{fill:#e950e9;}.cls-7{fill:#2d2253;}</style></defs><g id="Layer_2" data-name="Layer 2"><g id="Capa_1" data-name="Capa 1"><path class="cls-1" d="M121,60.87s-7.7,61.64-20.35,75.51C85.5,153,74.48,150.58,68.34,159.16h0C62.2,150.58,51.18,153,36,136.38,23.32,122.51,15.64,60.87,15.64,60.87,49,44.69,68.33,26.55,68.33,26.55v0C68.94,27.12,88.22,45,121,60.87Z"/><path class="cls-2" d="M68.34,26.57V159.16h0C62.2,150.58,51.18,153,36,136.38,23.32,122.51,15.64,60.87,15.64,60.87,49,44.69,68.33,26.55,68.33,26.55Z"/><path class="cls-3" d="M23.82,65.84S30.32,117.9,41,129.63c12.85,14.07,22.16,12,27.34,19.25,5.19-7.25,14.5-5.18,27.34-19.25,10.69-11.73,17.18-63.79,17.18-63.79-28.16-13.68-44.52-29-44.52-29S52,52.16,23.82,65.84Z"/><path class="cls-4" d="M112.85,65.84s-6.5,52.06-17.19,63.79c-12.83,14.06-22.14,12-27.33,19.24v-112C68.83,37.33,85.12,52.38,112.85,65.84Z"/><circle class="cls-5" cx="68.34" cy="92.86" r="20.65"/><polygon class="cls-6" points="65.98 106.28 56.79 96.71 60.2 93.43 65.27 98.7 76.2 81.94 80.16 84.53 65.98 106.28"/><polygon class="cls-5" points="112.85 150.11 109.93 150.65 109.28 153.73 108.62 150.65 105.7 150.11 108.61 149.4 109.28 146.49 109.94 149.4 112.85 150.11"/><polygon class="cls-5" points="26.36 126.71 23.45 127.25 22.79 130.33 22.14 127.25 19.22 126.71 22.13 126 22.79 123.09 23.46 126 26.36 126.71"/><polygon class="cls-5" points="39.69 45.58 36.77 46.12 36.12 49.19 35.46 46.12 32.55 45.57 35.45 44.86 36.12 41.96 36.78 44.86 39.69 45.58"/><polygon class="cls-5" points="107.62 136.27 105.99 136.57 105.63 138.29 105.26 136.57 103.63 136.27 105.25 135.87 105.63 134.25 106 135.87 107.62 136.27"/><polygon class="cls-5" points="118.91 102.03 117.28 102.33 116.91 104.05 116.55 102.33 114.92 102.03 116.54 101.63 116.91 100 117.28 101.63 118.91 102.03"/><polygon class="cls-5" points="105.06 41.96 103.42 42.26 103.06 43.98 102.69 42.26 101.06 41.96 102.69 41.56 103.06 39.94 103.43 41.56 105.06 41.96"/><polygon class="cls-5" points="63.38 166.57 61.74 166.87 61.38 168.59 61.01 166.87 59.38 166.57 61.01 166.17 61.38 164.55 61.75 166.17 63.38 166.57"/><polygon class="cls-5" points="17.29 130.72 15.66 131.02 15.3 132.74 14.93 131.02 13.3 130.71 14.93 130.32 15.3 128.69 15.67 130.32 17.29 130.72"/><polygon class="cls-5" points="19.83 83.03 18.2 83.33 17.84 85.05 17.47 83.33 15.84 83.03 17.46 82.63 17.84 81.01 18.21 82.63 19.83 83.03"/><path class="cls-5" d="M88.28,144a.47.47,0,0,0,0,.94A.47.47,0,0,0,88.28,144Z"/><path class="cls-5" d="M13.06,58.25a.48.48,0,0,0,0,1A.48.48,0,0,0,13.06,58.25Z"/><path class="cls-5" d="M103.06,146.65a.48.48,0,0,0,0,.95A.48.48,0,0,0,103.06,146.65Z"/><path class="cls-5" d="M55.14,72.77a.48.48,0,0,0,0,1A.48.48,0,0,0,55.14,72.77Z"/><path class="cls-5" d="M11.36,91.82a.48.48,0,0,0,0,1A.48.48,0,0,0,11.36,91.82Z"/><path class="cls-5" d="M.32,86.67a.34.34,0,0,0,0,.67A.34.34,0,0,0,.32,86.67Z"/><path class="cls-5" d="M90.59,35.78a.34.34,0,0,0,0,.67A.34.34,0,0,0,90.59,35.78Z"/><path class="cls-5" d="M43.88,150.34a.34.34,0,0,0,0,.67A.34.34,0,0,0,43.88,150.34Z"/><path class="cls-5" d="M33.42,144.19a.91.91,0,0,0,0,1.81A.91.91,0,0,0,33.42,144.19Z"/><polygon class="cls-6" points="83.72 0.72 83.72 36.21 93.08 36.21 93.08 52.38 109.26 36.21 219.11 36.21 219.11 0.72 83.72 0.72"/><path class="cls-1" d="M83.72.72,84,18.57c.11,5.92.19,11.78.23,17.64l-.48-.47,9.36,0h.51v.52l.07,16.17-1-.41,16.11-16.24.19-.19h.29l109.85-.1-.77.77L218.4.72l.71.72-33.72-.07-33.78-.19Zm0,0L151.23.26,185.14.07l34-.07h.72V.72l.06,35.49V37h-.78l-109.85-.1.47-.2L93.5,52.8l-1,1V52.38l.08-16.17.51.52-9.36,0h-.47v-.47c0-6,.12-11.94.23-17.85Z"/><path class="cls-7" d="M107.39,13.56v4.76h-1.34V13.56a3.07,3.07,0,1,0-6.13,0v4.76H98.57V13.56a4.42,4.42,0,1,1,8.82,0Z"/><polygon class="cls-7" points="98.57 14.8 99.92 14.85 99.92 18.32 98.57 18.32 98.57 14.8"/><polygon class="cls-7" points="107.39 15.16 107.39 18.32 106.05 18.32 106.05 15.1 107.39 15.16"/><rect class="cls-7" x="96.85" y="16.56" width="12.27" height="10.18"/><path class="cls-1" d="M128.68,14.26a11.86,11.86,0,0,1-1.47,2.34,19,19,0,0,1-1.78,2,20.24,20.24,0,0,1-2,1.78,12.67,12.67,0,0,1-2.34,1.47,12,12,0,0,1,1.46-2.34,18.29,18.29,0,0,1,1.79-2,19,19,0,0,1,2-1.78A12.67,12.67,0,0,1,128.68,14.26Z"/><path class="cls-1" d="M121.07,14.26a12.26,12.26,0,0,1,2.33,1.47,18.21,18.21,0,0,1,2,1.78,18.29,18.29,0,0,1,1.79,2,12,12,0,0,1,1.46,2.34,12.67,12.67,0,0,1-2.34-1.47,20.24,20.24,0,0,1-2-1.78,20.3,20.3,0,0,1-1.79-2A12.31,12.31,0,0,1,121.07,14.26Z"/><path class="cls-1" d="M130.26,18.07a11.86,11.86,0,0,1-2.69.61,18.84,18.84,0,0,1-2.7.18,20.35,20.35,0,0,1-2.69-.17,12.32,12.32,0,0,1-2.69-.62,12.32,12.32,0,0,1,2.69-.62,21.45,21.45,0,0,1,5.39,0A12.45,12.45,0,0,1,130.26,18.07Z"/><path class="cls-1" d="M124.87,12.68a12.59,12.59,0,0,1,.62,2.69,20.27,20.27,0,0,1,0,5.39,12,12,0,0,1-.62,2.7,12.51,12.51,0,0,1-.61-2.7,18.7,18.7,0,0,1-.18-2.69,20.41,20.41,0,0,1,.18-2.7A13.18,13.18,0,0,1,124.87,12.68Z"/><path class="cls-1" d="M147.27,14.26a12.35,12.35,0,0,1-1.47,2.34,21.54,21.54,0,0,1-1.78,2,20.36,20.36,0,0,1-2,1.78,12.35,12.35,0,0,1-2.34,1.47,12,12,0,0,1,1.47-2.34,18.21,18.21,0,0,1,1.78-2,20.2,20.2,0,0,1,2-1.78A12.35,12.35,0,0,1,147.27,14.26Z"/><path class="cls-1" d="M139.65,14.26A12.35,12.35,0,0,1,142,15.73a20.2,20.2,0,0,1,2,1.78,19.29,19.29,0,0,1,1.78,2,12,12,0,0,1,1.47,2.34,12,12,0,0,1-2.34-1.47,20.36,20.36,0,0,1-2-1.78,21.54,21.54,0,0,1-1.78-2A12.35,12.35,0,0,1,139.65,14.26Z"/><path class="cls-1" d="M148.85,18.07a11.94,11.94,0,0,1-2.7.61,18.61,18.61,0,0,1-2.69.18,20.14,20.14,0,0,1-2.69-.17,12.53,12.53,0,0,1-2.7-.62,12.53,12.53,0,0,1,2.7-.62,21.37,21.37,0,0,1,5.38,0A12.53,12.53,0,0,1,148.85,18.07Z"/><path class="cls-1" d="M143.46,12.68a12,12,0,0,1,.61,2.69,18.84,18.84,0,0,1,.18,2.7,20.24,20.24,0,0,1-.17,2.69,12.53,12.53,0,0,1-.62,2.7,12.53,12.53,0,0,1-.62-2.7,21.45,21.45,0,0,1,0-5.39A12.59,12.59,0,0,1,143.46,12.68Z"/><path class="cls-1" d="M165.85,14.26a11.86,11.86,0,0,1-1.47,2.34,19,19,0,0,1-1.78,2,20.24,20.24,0,0,1-2,1.78,12.67,12.67,0,0,1-2.34,1.47,12,12,0,0,1,1.46-2.34,18.29,18.29,0,0,1,1.79-2,19,19,0,0,1,2-1.78A12.67,12.67,0,0,1,165.85,14.26Z"/><path class="cls-1" d="M158.24,14.26a12.67,12.67,0,0,1,2.34,1.47,19,19,0,0,1,2,1.78,18.29,18.29,0,0,1,1.79,2,12,12,0,0,1,1.46,2.34,12.67,12.67,0,0,1-2.34-1.47,20.24,20.24,0,0,1-2-1.78,19,19,0,0,1-1.78-2A11.86,11.86,0,0,1,158.24,14.26Z"/><path class="cls-1" d="M167.43,18.07a11.86,11.86,0,0,1-2.69.61,18.84,18.84,0,0,1-2.7.18,20.35,20.35,0,0,1-2.69-.17,12.45,12.45,0,0,1-2.69-.62,12.45,12.45,0,0,1,2.69-.62,21.45,21.45,0,0,1,5.39,0A12.45,12.45,0,0,1,167.43,18.07Z"/><path class="cls-1" d="M162,12.68a12.59,12.59,0,0,1,.62,2.69,20.27,20.27,0,0,1,0,5.39,12,12,0,0,1-.62,2.7,12.51,12.51,0,0,1-.61-2.7,18.7,18.7,0,0,1-.18-2.69,20.41,20.41,0,0,1,.18-2.7A13.18,13.18,0,0,1,162,12.68Z"/><path class="cls-1" d="M184.44,14.26A12.35,12.35,0,0,1,183,16.6a21.54,21.54,0,0,1-1.78,2,20.36,20.36,0,0,1-2,1.78,12.35,12.35,0,0,1-2.34,1.47,12,12,0,0,1,1.47-2.34,18.21,18.21,0,0,1,1.78-2,20.2,20.2,0,0,1,2-1.78A12.35,12.35,0,0,1,184.44,14.26Z"/><path class="cls-1" d="M176.82,14.26a12.35,12.35,0,0,1,2.34,1.47,20.2,20.2,0,0,1,2,1.78,19.29,19.29,0,0,1,1.78,2,12,12,0,0,1,1.47,2.34,12,12,0,0,1-2.34-1.47,20.36,20.36,0,0,1-2-1.78,21.54,21.54,0,0,1-1.78-2A12.35,12.35,0,0,1,176.82,14.26Z"/><path class="cls-1" d="M186,18.07a11.94,11.94,0,0,1-2.7.61,18.61,18.61,0,0,1-2.69.18,20.14,20.14,0,0,1-2.69-.17,12.53,12.53,0,0,1-2.7-.62,12.53,12.53,0,0,1,2.7-.62,21.37,21.37,0,0,1,5.38,0A12.53,12.53,0,0,1,186,18.07Z"/><path class="cls-1" d="M180.63,12.68a12,12,0,0,1,.61,2.69,18.84,18.84,0,0,1,.18,2.7,20.24,20.24,0,0,1-.17,2.69,12.53,12.53,0,0,1-.62,2.7,12.53,12.53,0,0,1-.62-2.7,21.45,21.45,0,0,1,0-5.39A12.59,12.59,0,0,1,180.63,12.68Z"/><path class="cls-1" d="M203,14.26a11.86,11.86,0,0,1-1.47,2.34,19,19,0,0,1-1.78,2,20.24,20.24,0,0,1-2,1.78,12.67,12.67,0,0,1-2.34,1.47,12,12,0,0,1,1.46-2.34,18.29,18.29,0,0,1,1.79-2,19,19,0,0,1,2-1.78A12.67,12.67,0,0,1,203,14.26Z"/><path class="cls-1" d="M195.41,14.26a12.67,12.67,0,0,1,2.34,1.47,19,19,0,0,1,2,1.78,18.29,18.29,0,0,1,1.79,2A12,12,0,0,1,203,21.88a12.67,12.67,0,0,1-2.34-1.47,20.24,20.24,0,0,1-2-1.78,19,19,0,0,1-1.78-2A11.86,11.86,0,0,1,195.41,14.26Z"/><path class="cls-1" d="M204.6,18.07a11.86,11.86,0,0,1-2.69.61,18.84,18.84,0,0,1-2.7.18,20.35,20.35,0,0,1-2.69-.17,12.45,12.45,0,0,1-2.69-.62,12.45,12.45,0,0,1,2.69-.62,21.45,21.45,0,0,1,5.39,0A12.45,12.45,0,0,1,204.6,18.07Z"/><path class="cls-1" d="M199.21,12.68a12.59,12.59,0,0,1,.62,2.69,20.27,20.27,0,0,1,0,5.39,12,12,0,0,1-.62,2.7,12.51,12.51,0,0,1-.61-2.7,18.7,18.7,0,0,1-.18-2.69,20.41,20.41,0,0,1,.18-2.7A13.18,13.18,0,0,1,199.21,12.68Z"/></g></g></svg>